Coordinates
version=1
nRows=19
nColumns=36
inDegrees=yes

Units are S.I. units (second, meters, Newtons, ...)
If the header above contains a line with 'inDegrees', this indicates whether rotational values are in degrees (yes) or radians (no).

endheader
time	pelvis_tilt	pelvis_list	pelvis_rotation	pelvis_tx	pelvis_ty	pelvis_tz	hip_flexion_r	hip_adduction_r	hip_rotation_r	knee_angle_r	knee_angle_r_beta	ankle_angle_r	subtalar_angle_r	mtp_angle_r	hip_flexion_l	hip_adduction_l	hip_rotation_l	knee_angle_l	knee_angle_l_beta	ankle_angle_l	subtalar_angle_l	mtp_angle_l	lumbar_extension	lumbar_bending	lumbar_rotation	arm_flex_r	arm_add_r	arm_rot_r	elbow_flex_r	pro_sup_r	arm_flex_l	arm_add_l	arm_rot_l	elbow_flex_l	pro_sup_l
      0.67000000	     -3.94737725	     -2.32674117	      4.94284648	     -0.97864458	      1.26084387	     -0.10773408	      7.88658890	      0.87213416	     -2.36206035	     14.03993192	      0.24504304	      3.58549740	    -25.40787229	     -7.49999987	      8.04375601	     -0.47173588	     20.17970405	     10.62844589	      0.18550138	     10.06225158	    -13.08792123	     -7.49999987	    -20.34167049	      3.45061855	     -3.60596451	      0.28813995	     -6.86311451	      9.97946646	     11.78271994	     74.03118017	     -3.49387228	     -9.08520541	     28.26783209	      6.39110043	     52.99636678
      0.67166670	     -4.28972981	     -2.34727725	      5.01373418	     -0.97819006	      1.26393731	     -0.10799894	      8.30716558	      0.88813383	     -2.18918232	     14.13105150	      0.24663338	      3.43313627	    -25.92819042	     -7.49999987	      8.54230526	     -0.39331653	     20.29778317	     10.88073225	      0.18990460	     10.31011466	    -13.03835577	     -7.49999987	    -20.50564777	      3.49553808	     -3.34137168	      0.05109203	     -7.07054552	     11.07553610	     11.77283130	     72.40627012	     -3.38315042	     -9.24153721	     27.61808534	      6.60809405	     54.10783945
      0.67333330	     -4.65097613	     -2.35151408	      5.00625209	     -0.97796729	      1.26442057	     -0.10777430	      8.77033788	      0.87840968	     -2.27124931	     14.18612081	      0.24759452	      3.57976554	    -25.87081736	     -7.49999987	      8.94783246	     -0.34177297	     20.39915919	     10.93627649	      0.19087403	     10.32762358	    -13.06142972	     -7.49999987	    -20.72685349	      3.45759495	     -3.22674186	     -0.12312781	     -7.11340219	     10.89065365	     11.93195638	     69.79006690	     -3.40616905	     -9.12192027	     26.68053676	      6.55751780	     54.85445936
      0.67500000	     -4.98725305	     -2.40947717	      5.08273288	     -0.97782391	      1.25974975	     -0.10775862	      9.18083839	      0.94967072	     -2.10601644	     14.27973677	      0.24922842	      3.52694825	    -26.23154413	     -7.49999987	      9.33624819	     -0.35274685	     20.56702769	     11.02040244	      0.19234231	     10.41193752	    -13.20926948	     -7.49999987	    -20.89503216	      3.46625389	     -3.18368907	     -0.18896330	     -7.28740680	     12.13526444	     11.74813534	     69.53953636	     -3.59848567	     -9.21485368	     26.68073719	      6.86071597	     55.00601141
      0.67666670	     -5.37603196	     -2.50504851	      5.24223618	     -0.97789919	      1.25631476	     -0.10783157	      9.65285052	      1.01366229	     -2.19442409	     14.39881673	      0.25130676	      3.60117821	    -26.47031240	     -7.49999987	      9.86440267	     -0.42533082	     20.67051777	     11.06572382	      0.19313331	     10.59127276	    -12.89892359	     -7.49999987	    -20.96548787	      3.59396579	     -3.45274562	     -0.11061460	     -7.67849382	     16.25493532	     11.42597200	     68.88515572	     -3.69410104	     -9.39708060	     29.07040673	      6.87827870	     54.44724794
      0.67833330	     -5.90349703	     -2.58835117	      5.30778177	     -0.97763684	      1.25864187	     -0.10855700	     10.31709380	      1.03364143	     -2.18332809	     14.59909102	      0.25480221	      3.64577284	    -26.67872450	     -7.49999987	     10.50995255	     -0.47107798	     20.72351708	     11.12087717	      0.19409592	     10.76145950	    -12.52366665	     -7.49999987	    -20.91660254	      3.63738329	     -3.47672530	     -0.21905073	     -7.66130240	     15.91715459	     11.47448990	     67.56421801	     -3.49896802	     -9.51660742	     28.60970278	      6.79609081	     54.86055673
      0.68000000	     -6.26628253	     -2.64853156	      5.32783118	     -0.97720227	      1.25937124	     -0.10830766	     10.73467258	      1.08381991	     -2.32014273	     14.67879043	      0.25619322	      3.67964364	    -26.85745009	     -7.49999987	     10.92195938	     -0.45508046	     20.88147546	     11.12327044	      0.19413769	     10.74989545	    -12.52584831	     -7.49999987	    -21.24016022	      3.66746545	     -3.46784041	     -0.35981366	     -7.67117324	     15.34147325	     12.03192969	     65.92179687	     -3.31992202	     -9.83256262	     28.09369284	      7.38634838	     55.39767818
      0.68166670	     -6.84323164	     -2.78836152	      5.32528826	     -0.97670286	      1.25804233	     -0.10872734	     11.45493580	      1.19344555	     -2.34003072	     14.85474652	      0.25926424	      3.49330369	    -27.26899247	     -7.49999987	     11.65100258	     -0.48220679	     20.96132470	     11.33898872	      0.19790269	     10.71368162	    -12.46746255	     -7.49999987	    -21.12689749	      3.73634170	     -3.33002417	     -0.50118059	     -7.75339129	     15.54979686	     12.11504788	     65.35705324	     -3.24803705	     -9.91111861	     28.09653571	      7.58141265	     55.68808714
      0.68333330	     -7.25840548	     -2.88879459	      5.28867826	     -0.97638494	      1.25521440	     -0.10834171	     11.97947333	      1.27530527	     -2.36003715	     15.08006041	      0.26319671	      3.65714733	    -27.25868745	     -7.49999987	     12.08427625	     -0.53729501	     20.94687291	     11.43802518	      0.19963120	     10.79532143	    -12.40097917	     -7.49999987	    -21.15152310	      3.81439881	     -3.49619981	     -0.21321864	     -8.19060891	     22.99893356	     11.20581117	     58.66472724	     -3.61975764	    -10.20840140	     31.58761556	      7.88117031	     51.06793801
      0.68500000	     -7.75189354	     -2.91311198	      5.20618376	     -0.97589583	      1.25397246	     -0.10848044	     12.73071440	      1.24184682	     -2.39477062	     15.57589139	      0.27185059	      3.84983018	    -27.18513080	     -7.49999987	     12.58322949	     -0.53241735	     20.96753014	     11.54469429	      0.20149293	     10.91435454	    -12.54145596	     -7.49999987	    -21.15079926	      3.80213345	     -3.44155203	     -0.45633795	     -8.27272175	     22.43673269	     11.27958990	     58.60600725	     -3.83272770	    -10.27891189	     31.06392451	      7.97607580	     51.89027201
      0.68666670	     -8.23190105	     -2.97040844	      5.17416834	     -0.97547095	      1.25463692	     -0.10817197	     13.40931929	      1.24507955	     -2.45096633	     15.96052470	      0.27856371	      3.99549558	    -27.02332411	     -7.49999987	     13.12364527	     -0.50793388	     20.92060535	     11.78517541	      0.20569011	     10.97799313	    -12.64390349	     -7.49999987	    -21.09372497	      3.78370631	     -3.33789004	     -0.83899026	     -8.29221233	     21.09924415	     11.50356749	     58.49703861	     -4.00826040	    -10.30818724	     29.82718821	      8.02516034	     52.83827412
      0.68833330	     -8.70990119	     -3.04117599	      5.28666579	     -0.97560560	      1.25295219	     -0.10896353	     14.11125308	      1.22005262	     -2.69740284	     16.38085441	      0.28589984	      4.16116518	    -26.71157012	     -7.49999987	     13.74390141	     -0.45755214	     21.03681061	     12.02428914	      0.20986344	     11.07735144	    -12.57500667	     -7.49999987	    -21.11915508	      3.80796266	     -3.46049273	     -1.09662333	     -8.38355725	     20.69883372	     11.82890596	     58.49909167	     -4.18271192	    -10.38226930	     29.33701718	      8.15748924	     53.31746723
      0.69000000	     -9.42393737	     -3.03889444	      5.13011011	     -0.98143665	      1.24990883	     -0.11256406	     15.30865852	      1.08936182	     -2.46462244	     17.06556386	      0.29785028	      4.35656932	    -26.90861546	     -7.49999987	     14.74317647	     -0.25645326	     20.95975687	     12.41892467	      0.21675113	     11.09608938	    -13.03299735	     -7.49999987	    -21.02692236	      3.82248118	     -3.30261149	     -1.10897180	     -8.66089066	     20.90037956	     11.89195221	     58.42060391	     -4.13456692	    -10.31500631	     29.22434732	      8.40109573	     53.19204306
      0.69166670	    -10.05018502	     -3.09068583	      5.19112530	     -0.98080385	      1.24971340	     -0.11252632	     16.38297838	      0.94388344	     -2.33650915	     17.57076020	      0.30666762	      4.34298898	    -27.02723530	     -7.49999987	     15.60008210	     -0.13130450	     21.07091658	     12.66358104	      0.22102118	     11.05285009	    -13.28043060	     -7.49999987	    -20.95313906	      3.93500951	     -3.34005107	     -1.15923264	     -8.88137891	     20.81359963	     12.23749327	     58.21743976	     -4.29831847	    -10.28507765	     28.54331615	      8.62843465	     53.31237390
      0.69333330	    -10.89467568	     -3.08986348	      5.18268286	     -0.98695384	      1.24670654	     -0.11643002	     17.95711746	      0.64456924	     -2.17401174	     18.42461158	      0.32157014	      4.35781299	    -27.23358223	     -7.49999987	     16.91943877	      0.18364155	     21.05118133	     13.19359894	      0.23027174	     11.10363104	    -13.64547418	     -7.49999987	    -20.67272527	      4.03505798	     -3.34607672	     -1.07325443	     -9.32129373	     20.91942520	     12.52811088	     58.05066761	     -4.34719383	    -10.15883751	     28.29982944	      8.65954493	     53.12112498
      0.69500000	    -11.03707347	     -3.11459902	      5.29844798	     -0.98005439	      1.24631619	     -0.11232050	     18.51536600	      0.56726229	     -2.16697936	     18.96908790	      0.33107304	      4.28423662	    -27.37872127	     -7.49999987	     17.33052010	      0.29468880	     21.20563347	     13.53172125	      0.23617309	     11.10611233	    -13.69700982	     -7.49999987	    -21.07689365	      4.20008722	     -3.41322032	     -1.02251584	     -9.41993826	     20.91207497	     12.62537872	     57.99172922	     -4.46945937	    -10.18636672	     28.19484176	      8.54626027	     53.05443326
      0.69666670	    -11.18119810	     -3.11962663	      5.40601837	     -0.98597083	      1.24731498	     -0.11661081	     18.87774563	      0.41374053	     -2.18684172	     19.16186741	      0.33443768	      4.21098277	    -27.42193493	     -7.49999987	     17.59047237	      0.42367883	     21.19664056	     13.56523465	      0.23675801	     11.13751300	    -13.74297950	     -7.49999987	    -21.36826287	      4.36255135	     -3.35122653	     -0.95637239	     -9.60030648	     20.89536725	     12.63121767	     57.97461003	     -4.54175849	    -10.17119920	     28.16565079	      8.50151669	     53.03633931
      0.69833330	    -12.31333663	     -3.19422031	      5.32888853	     -0.98584334	      1.24901902	     -0.11687419	     20.73449380	      0.27057148	     -2.17972326	     20.09604165	      0.35074209	      3.92236849	    -28.01244889	     -7.49999987	     19.46992062	      0.69842903	     21.20648269	     14.56527841	      0.25421206	     11.02503463	    -14.12699283	     -7.49999987	    -20.41721169	      4.48804278	     -3.57082797	     -0.98626719	     -9.90222916	     20.81939814	     13.24217537	     57.70569042	     -4.62361872	     -9.79673960	     27.52431181	      8.12571808	     52.65587403
      0.70000000	    -12.69142724	     -3.17047308	      5.39096942	     -0.98587134	      1.24172075	     -0.11647847	     21.49579391	      0.16468288	     -2.02088297	     20.67950254	      0.36092541	      3.90032087	    -28.24231288	     -7.49999987	     20.30437380	      0.95883527	     21.17135935	     15.27169594	      0.26654138	     11.25421423	    -14.32294176	     -7.49999987	    -20.36651112	      4.56679752	     -3.55025187	     -1.19367525	     -9.98626151	     19.31180568	     13.80587705	     57.31676329	     -4.53852043	     -9.57264504	     25.12100858	      8.02979449	     52.28151569
